<svg xmlns="http://www.w3.org/2000/svg" version="1.2" baseProfile="tiny" width="304" height="304" viewBox="24 24 152 152"><path d="M 100,28 L172,100 100,172 28,100 100,28 Z" stroke-width="4" stroke="black" fill="rgb(255,128,128)" fill-opacity="1" ></path><path d="M 100 28 L 89.40625 38.59375 L 100 49.21875 L 110.59375 38.59375 L 100 28 z M 38.6875 89.3125 L 28.0625 99.9375 L 38.6875 110.53125 L 49.28125 99.9375 L 38.6875 89.3125 z M 161.40625 89.40625 L 150.78125 100 L 161.40625 110.59375 L 172 100 L 161.40625 89.40625 z M 99.9375 150.71875 L 89.3125 161.3125 L 99.9375 171.9375 L 110.53125 161.3125 L 99.9375 150.71875" stroke-width="4" stroke="none" fill="black" ></path><path d="m 108,90 c 0,10 -15,10 -15,0 0,-10 15,-10 15,0 z m -8,7.3 0,25 m -10,-20 20,0" stroke-width="4" stroke="black" fill="none" ></path><text x="100" y="77" text-anchor="middle" font-size="22" font-family="Arial" font-weight="bold" stroke-width="4" stroke="none" fill="black" >INFL</text></svg>