<svg xmlns="http://www.w3.org/2000/svg" version="1.2" baseProfile="tiny" width="304" height="324" viewBox="24 14 152 162"><path d="M 100,28 L172,100 100,172 28,100 100,28 Z" stroke-width="4" stroke="black" fill="rgb(255,128,128)" fill-opacity="1" ></path><path d="M100,80 l0,40 M81,90.5 l38,19 M81,109.5 l38,-19" stroke-width="4" stroke="black" fill="none" ></path><circle cx="100" cy="100" r="20" stroke-width="4" stroke="black" fill="none" ></circle><g transform="translate(0,-35)" stroke-width="4" stroke="black" fill="black" ><g transform="translate(40,40)" ><g transform="scale(0.6)" ><path d="m 105,85 c 0,2.8 -2.2,5 -5,5 -2.8,0 -5,-2.2 -5,-5 0,-2.8 2.2,-5 5,-5 2.8,0 5,2.2 5,5 z m -20,5 30,0 m -15,0 0,30" stroke-width="4" stroke="black" fill="none" ></path><path d="M 82.3 102.6 C 82.3 113.9 84.2 115.9 84.2 115.9 L 86.5 114.1 C 90.2 117.8 94.8 120.8 99.9 120.9 L 100.5 120.9 L 101 120.9 C 106.2 120.8 110.8 117.8 114.4 114.1 L 116.7 115.9 C 116.7 115.9 118.6 113.9 118.7 102.6 C 113.9 106.8 108.9 109 108.9 109 L 110.9 110.7 C 110.9 110.7 106.8 115.2 100.5 115.2 L 100.5 115.2 C 100.5 115.2 100.4 115.2 100.4 115.2 C 94.2 115.2 90 110.7 90 110.7 L 92 109 C 92 109 87 106.8 82.3 102.6 z" stroke-width="4" stroke="none" fill="black" ></path></g></g></g><path d="M85,40 85,18 115,18 115,40 100,24 Z" stroke-width="4" stroke="black" fill="black" ></path></svg>