<svg xmlns="http://www.w3.org/2000/svg" version="1.2" baseProfile="tiny" width="236" height="236" viewBox="41 41 118 118"><path d="M45,45 l110,0 0,110 -110,0 z" stroke-width="4" stroke="black" fill="rgb(170,255,170)" fill-opacity="1" ></path><path d="m 140,140 15,0 0,15 -15,0 z m -80,0 0,15 -15,0 0,-15 z m 80,-80 0,-15 15,0 0,15 z m -80,0 -15,0 0,-15 15,0 z" stroke-width="4" stroke="none" fill="black" ></path><path d="m 108,90 c 0,10 -15,10 -15,0 0,-10 15,-10 15,0 z m -8,7.3 0,25 m -10,-20 20,0" stroke-width="4" stroke="black" fill="none" ></path><text x="100" y="77" text-anchor="middle" font-size="22" font-family="Arial" font-weight="bold" stroke-width="4" stroke="none" fill="black" >INFL</text></svg>