<svg xmlns="http://www.w3.org/2000/svg" version="1.2" baseProfile="tiny" width="293" height="293" viewBox="26.75 26.75 146.5 146.5"><path d="M63,63 C63,20 137,20 137,63 C180,63 180,137 137,137 C137,180 63,180 63,137 C20,137 20,63 63,63 Z" stroke-width="4" stroke="black" fill="rgb(255,255,128)" fill-opacity="1" ></path><path d="M 107.96875 31.46875 L 92.03125 31.71875 L 92.03125 46.4375 L 107.71875 46.4375 L 107.96875 31.46875 z M 47.03125 92.5 L 31.09375 92.75 L 31.09375 107.5 L 46.78125 107.5 L 47.03125 92.5 z M 168.4375 92.5 L 152.5 92.75 L 152.5 107.5 L 168.1875 107.5 L 168.4375 92.5 z M 107.96875 153.5625 L 92.03125 153.8125 L 92.03125 168.53125 L 107.71875 168.53125 L 107.96875 153.5625 z" stroke-width="4" stroke="none" fill="black" ></path><path d="m 108,90 c 0,10 -15,10 -15,0 0,-10 15,-10 15,0 z m -8,7.3 0,25 m -10,-20 20,0" stroke-width="4" stroke="black" fill="none" ></path><text x="100" y="77" text-anchor="middle" font-size="22" font-family="Arial" font-weight="bold" stroke-width="4" stroke="none" fill="black" >INFL</text></svg>