<svg xmlns="http://www.w3.org/2000/svg" aria-hidden="true" style="width: 0; height: 0; position: absolute;"><symbol id="symbologyf-airdefense" viewBox="21 46 158 108"><path d="M25,50 l150,0 0,100 -150,0 z" stroke-width="4" stroke="black" fill="rgb(128,224,255)" fill-opacity="1"></path><path d="M25,150 C25,110 175,110 175,150" stroke-width="4" stroke="black" fill="none"></path></symbol><symbol id="symbologyf-amphibious" viewBox="21 46 158 108"><path d="M25,50 l150,0 0,100 -150,0 z" stroke-width="4" stroke="black" fill="rgb(128,224,255)" fill-opacity="1"></path><path d="M25,50 L175,150 M25,150 L175,50" stroke-width="4" stroke="black" fill="black"></path><path d="m 25,90 c 18.8,0 0,20 18.8,20 18.8,0 0,-20 18.8,-20 18.8,0 0,20 18.8,20 18.8,0 0,-20 18.8,-20 18.8,0 0,20 18.8,20 18.8,0 0,-20 18.8,-20 18.8,0 0,20 18.8,20 18.8,0 0,-20 20,-20" stroke-width="4" stroke="black" fill="none"></path></symbol><symbol id="symbologyf-armor-armored-mechanized-self–propelled-tracked" viewBox="21 46 158 108"><path d="M25,50 l150,0 0,100 -150,0 z" stroke-width="4" stroke="black" fill="rgb(128,224,255)" fill-opacity="1"></path><path d="M125,80 C150,80 150,120 125,120 L75,120 C50,120 50,80 75,80 Z" stroke-width="4" stroke="black" fill="none"></path></symbol><symbol id="symbologyf-aviationfixedwing" viewBox="21 46 158 108"><path d="M25,50 l150,0 0,100 -150,0 z" stroke-width="4" stroke="black" fill="rgb(128,224,255)" fill-opacity="1"></path><path d="M100,100 L130,88 c15,0 15,24 0,24 L100,100 70,112 c-15,0 -15,-24 0,-24 Z" stroke-width="4" stroke="black" fill="black"></path></symbol><symbol id="symbologyf-band" viewBox="21 46 158 108"><path d="M25,50 l150,0 0,100 -150,0 z" stroke-width="4" stroke="black" fill="rgb(128,224,255)" fill-opacity="1"></path><text x="100" y="110" text-anchor="middle" font-size="32" font-family="Arial" font-weight="bold" stroke-width="4" stroke="none" fill="black">BAND</text></symbol><symbol id="symbologyf-combinedarms" viewBox="21 46 158 108"><path d="M25,50 l150,0 0,100 -150,0 z" stroke-width="4" stroke="black" fill="rgb(128,224,255)" fill-opacity="1"></path><path d="m 70,80 60,40 m 0,-40 -60,40 m 55,-40 c 25,0 25,40 0,40 l -50,0 C 50,120 50,80 75,80 z" stroke-width="4" stroke="black" fill="none"></path></symbol><symbol id="symbologyf-counterintelligence" viewBox="21 46 158 108"><path d="M25,50 l150,0 0,100 -150,0 z" stroke-width="4" stroke="black" fill="rgb(128,224,255)" fill-opacity="1"></path><text x="100" y="115" text-anchor="middle" font-size="42" font-family="Arial" font-weight="bold" stroke-width="4" stroke="none" fill="black">CI</text></symbol><symbol id="symbologyf-electronicwarfare" viewBox="21 46 158 108"><path d="M25,50 l150,0 0,100 -150,0 z" stroke-width="4" stroke="black" fill="rgb(128,224,255)" fill-opacity="1"></path><text x="100" y="115" text-anchor="middle" font-size="42" font-family="Arial" font-weight="bold" stroke-width="4" stroke="none" fill="black">EW</text></symbol><symbol id="symbologyf-fieldartillery" viewBox="21 46 158 108"><path d="M25,50 l150,0 0,100 -150,0 z" stroke-width="4" stroke="black" fill="rgb(128,224,255)" fill-opacity="1"></path><circle cx="100" cy="100" r="15" stroke-width="4" stroke="black" fill="black"></circle></symbol><symbol id="symbologyf-infantry" viewBox="21 46 158 108"><path d="M25,50 l150,0 0,100 -150,0 z" stroke-width="4" stroke="black" fill="rgb(128,224,255)" fill-opacity="1"></path><path d="M25,50 L175,150 M25,150 L175,50" stroke-width="4" stroke="black" fill="black"></path></symbol><symbol id="symbologyf-missiledefense" viewBox="21 46 158 108"><path d="M25,50 l150,0 0,100 -150,0 z" stroke-width="4" stroke="black" fill="rgb(128,224,255)" fill-opacity="1"></path><text x="100" y="115" text-anchor="middle" font-size="42" font-family="Arial" font-weight="bold" stroke-width="4" stroke="none" fill="black">MD</text></symbol><symbol id="symbologyf-naval" viewBox="21 46 158 108"><path d="M25,50 l150,0 0,100 -150,0 z" stroke-width="4" stroke="black" fill="rgb(128,224,255)" fill-opacity="1"></path><path d="m 105,85 c 0,2.8 -2.2,5 -5,5 -2.8,0 -5,-2.2 -5,-5 0,-2.8 2.2,-5 5,-5 2.8,0 5,2.2 5,5 z m -20,5 30,0 m -15,0 0,30" stroke-width="4" stroke="black" fill="none"></path><path d="M 82.3 102.6 C 82.3 113.9 84.2 115.9 84.2 115.9 L 86.5 114.1 C 90.2 117.8 94.8 120.8 99.9 120.9 L 100.5 120.9 L 101 120.9 C 106.2 120.8 110.8 117.8 114.4 114.1 L 116.7 115.9 C 116.7 115.9 118.6 113.9 118.7 102.6 C 113.9 106.8 108.9 109 108.9 109 L 110.9 110.7 C 110.9 110.7 106.8 115.2 100.5 115.2 L 100.5 115.2 C 100.5 115.2 100.4 115.2 100.4 115.2 C 94.2 115.2 90 110.7 90 110.7 L 92 109 C 92 109 87 106.8 82.3 102.6 z" stroke-width="4" stroke="none" fill="black"></path></symbol><symbol id="symbologyf-reconnaissance-cavalry-scout" viewBox="21 46 158 108"><path d="M25,50 l150,0 0,100 -150,0 z" stroke-width="4" stroke="black" fill="rgb(128,224,255)" fill-opacity="1"></path><path d="M25,150L175,50" stroke-width="4" stroke="black" fill="black"></path></symbol><symbol id="symbologyf-reconnaissance" viewBox="21 46 158 108"><path d="M25,50 l150,0 0,100 -150,0 z" stroke-width="4" stroke="black" fill="rgb(128,224,255)" fill-opacity="1"></path><path d="M60,85 l40,15 40,-15 0,30 -40,-15 -40,15 z" stroke-width="4" stroke="black" fill="black"></path><path d="M25,150L175,50" stroke-width="4" stroke="black" fill="black"></path></symbol><symbol id="symbologyf-self–propelled" viewBox="21 46 158 108"><path d="M25,50 l150,0 0,100 -150,0 z" stroke-width="4" stroke="black" fill="rgb(128,224,255)" fill-opacity="1"></path><g transform="translate(20,20)"><g transform="scale(0.8)"><circle cx="100" cy="100" r="15" stroke-width="4" stroke="black" fill="black"></circle></g></g><path d="M125,80 C150,80 150,120 125,120 L75,120 C50,120 50,80 75,80 Z" stroke-width="4" stroke="black" fill="none"></path></symbol><symbol id="symbologyf-shorepatrol" viewBox="21 46 158 108"><path d="M25,50 l150,0 0,100 -150,0 z" stroke-width="4" stroke="black" fill="rgb(128,224,255)" fill-opacity="1"></path><text x="100" y="115" text-anchor="middle" font-size="42" font-family="Arial" font-weight="bold" stroke-width="4" stroke="none" fill="black">SP</text></symbol><symbol id="symbologyf-surveillance" viewBox="21 46 158 108"><path d="M25,50 l150,0 0,100 -150,0 z" stroke-width="4" stroke="black" fill="rgb(128,224,255)" fill-opacity="1"></path><path d="m 100,80 -25,40 50,0 z" stroke-width="4" stroke="black" fill="black"></path></symbol><symbol id="symbologyh-airdefense" viewBox="24 24 152 152"><path d="M 100,28 L172,100 100,172 28,100 100,28 Z" stroke-width="4" stroke="black" fill="rgb(255,128,128)" fill-opacity="1"></path><path d="M70,140 C70,115 130,115 130,140" stroke-width="4" stroke="black" fill="none"></path></symbol><symbol id="symbologyh-amphibious" viewBox="24 24 152 152"><path d="M 100,28 L172,100 100,172 28,100 100,28 Z" stroke-width="4" stroke="black" fill="rgb(255,128,128)" fill-opacity="1"></path><path d="M60,70L140,130M60,130L140,70" stroke-width="4" stroke="black" fill="black"></path><path d="m 32,95 c 10,0 0,15 11.5,15 18.8,0 0,-20 18.8,-20 18.8,0 0,20 18.8,20 18.8,0 0,-20 18.8,-20 18.8,0 0,20 18.8,20 18.8,0 0,-20 18.8,-20 18.8,0 0,20 18.8,20 11.5,0 1.5,-15 11.5,-15" stroke-width="4" stroke="black" fill="none"></path></symbol><symbol id="symbologyh-armor-armored-mechanized-self–propelled-tracked" viewBox="24 24 152 152"><path d="M 100,28 L172,100 100,172 28,100 100,28 Z" stroke-width="4" stroke="black" fill="rgb(255,128,128)" fill-opacity="1"></path><path d="M125,80 C150,80 150,120 125,120 L75,120 C50,120 50,80 75,80 Z" stroke-width="4" stroke="black" fill="none"></path></symbol><symbol id="symbologyh-aviationfixedwing" viewBox="24 24 152 152"><path d="M 100,28 L172,100 100,172 28,100 100,28 Z" stroke-width="4" stroke="black" fill="rgb(255,128,128)" fill-opacity="1"></path><path d="M100,100 L130,88 c15,0 15,24 0,24 L100,100 70,112 c-15,0 -15,-24 0,-24 Z" stroke-width="4" stroke="black" fill="black"></path></symbol><symbol id="symbologyh-band" viewBox="24 24 152 152"><path d="M 100,28 L172,100 100,172 28,100 100,28 Z" stroke-width="4" stroke="black" fill="rgb(255,128,128)" fill-opacity="1"></path><text x="100" y="110" text-anchor="middle" font-size="32" font-family="Arial" font-weight="bold" stroke-width="4" stroke="none" fill="black">BAND</text></symbol><symbol id="symbologyh-combinedarms" viewBox="24 24 152 152"><path d="M 100,28 L172,100 100,172 28,100 100,28 Z" stroke-width="4" stroke="black" fill="rgb(255,128,128)" fill-opacity="1"></path><path d="m 70,80 60,40 m 0,-40 -60,40 m 55,-40 c 25,0 25,40 0,40 l -50,0 C 50,120 50,80 75,80 z" stroke-width="4" stroke="black" fill="none"></path></symbol><symbol id="symbologyh-counterintelligence" viewBox="24 24 152 152"><path d="M 100,28 L172,100 100,172 28,100 100,28 Z" stroke-width="4" stroke="black" fill="rgb(255,128,128)" fill-opacity="1"></path><text x="100" y="115" text-anchor="middle" font-size="42" font-family="Arial" font-weight="bold" stroke-width="4" stroke="none" fill="black">CI</text></symbol><symbol id="symbologyh-electronicwarfare" viewBox="24 24 152 152"><path d="M 100,28 L172,100 100,172 28,100 100,28 Z" stroke-width="4" stroke="black" fill="rgb(255,128,128)" fill-opacity="1"></path><text x="100" y="115" text-anchor="middle" font-size="42" font-family="Arial" font-weight="bold" stroke-width="4" stroke="none" fill="black">EW</text></symbol><symbol id="symbologyh-fieldartillery" viewBox="24 24 152 152"><path d="M 100,28 L172,100 100,172 28,100 100,28 Z" stroke-width="4" stroke="black" fill="rgb(255,128,128)" fill-opacity="1"></path><circle cx="100" cy="100" r="15" stroke-width="4" stroke="black" fill="black"></circle></symbol><symbol id="symbologyh-infantry" viewBox="24 24 152 152"><path d="M 100,28 L172,100 100,172 28,100 100,28 Z" stroke-width="4" stroke="black" fill="rgb(255,128,128)" fill-opacity="1"></path><path d="M60,70L140,130M60,130L140,70" stroke-width="4" stroke="black" fill="black"></path></symbol><symbol id="symbologyh-missiledefense" viewBox="24 24 152 152"><path d="M 100,28 L172,100 100,172 28,100 100,28 Z" stroke-width="4" stroke="black" fill="rgb(255,128,128)" fill-opacity="1"></path><text x="100" y="115" text-anchor="middle" font-size="42" font-family="Arial" font-weight="bold" stroke-width="4" stroke="none" fill="black">MD</text></symbol><symbol id="symbologyh-naval" viewBox="24 24 152 152"><path d="M 100,28 L172,100 100,172 28,100 100,28 Z" stroke-width="4" stroke="black" fill="rgb(255,128,128)" fill-opacity="1"></path><path d="m 105,85 c 0,2.8 -2.2,5 -5,5 -2.8,0 -5,-2.2 -5,-5 0,-2.8 2.2,-5 5,-5 2.8,0 5,2.2 5,5 z m -20,5 30,0 m -15,0 0,30" stroke-width="4" stroke="black" fill="none"></path><path d="M 82.3 102.6 C 82.3 113.9 84.2 115.9 84.2 115.9 L 86.5 114.1 C 90.2 117.8 94.8 120.8 99.9 120.9 L 100.5 120.9 L 101 120.9 C 106.2 120.8 110.8 117.8 114.4 114.1 L 116.7 115.9 C 116.7 115.9 118.6 113.9 118.7 102.6 C 113.9 106.8 108.9 109 108.9 109 L 110.9 110.7 C 110.9 110.7 106.8 115.2 100.5 115.2 L 100.5 115.2 C 100.5 115.2 100.4 115.2 100.4 115.2 C 94.2 115.2 90 110.7 90 110.7 L 92 109 C 92 109 87 106.8 82.3 102.6 z" stroke-width="4" stroke="none" fill="black"></path></symbol><symbol id="symbologyh-reconnaissance-cavalry-scout" viewBox="24 24 152 152"><path d="M 100,28 L172,100 100,172 28,100 100,28 Z" stroke-width="4" stroke="black" fill="rgb(255,128,128)" fill-opacity="1"></path><path d="M60,130L140,70" stroke-width="4" stroke="black" fill="black"></path></symbol><symbol id="symbologyh-reconnaissance" viewBox="24 24 152 152"><path d="M 100,28 L172,100 100,172 28,100 100,28 Z" stroke-width="4" stroke="black" fill="rgb(255,128,128)" fill-opacity="1"></path><path d="M60,85 l40,15 40,-15 0,30 -40,-15 -40,15 z" stroke-width="4" stroke="black" fill="black"></path><path d="M60,130L140,70" stroke-width="4" stroke="black" fill="black"></path></symbol><symbol id="symbologyh-self–propelled" viewBox="24 24 152 152"><path d="M 100,28 L172,100 100,172 28,100 100,28 Z" stroke-width="4" stroke="black" fill="rgb(255,128,128)" fill-opacity="1"></path><g transform="translate(20,20)"><g transform="scale(0.8)"><circle cx="100" cy="100" r="15" stroke-width="4" stroke="black" fill="black"></circle></g></g><path d="M125,80 C150,80 150,120 125,120 L75,120 C50,120 50,80 75,80 Z" stroke-width="4" stroke="black" fill="none"></path></symbol><symbol id="symbologyh-shorepatrol" viewBox="24 24 152 152"><path d="M 100,28 L172,100 100,172 28,100 100,28 Z" stroke-width="4" stroke="black" fill="rgb(255,128,128)" fill-opacity="1"></path><text x="100" y="115" text-anchor="middle" font-size="42" font-family="Arial" font-weight="bold" stroke-width="4" stroke="none" fill="black">SP</text></symbol><symbol id="symbologyh-surveillance" viewBox="24 24 152 152"><path d="M 100,28 L172,100 100,172 28,100 100,28 Z" stroke-width="4" stroke="black" fill="rgb(255,128,128)" fill-opacity="1"></path><path d="m 100,80 -25,40 50,0 z" stroke-width="4" stroke="black" fill="black"></path></symbol><symbol id="symbologyn-airdefense" viewBox="41 41 118 118"><path d="M45,45 l110,0 0,110 -110,0 z" stroke-width="4" stroke="black" fill="rgb(170,255,170)" fill-opacity="1"></path><path d="M45,150 C45,110 155,110 155,150" stroke-width="4" stroke="black" fill="none"></path></symbol><symbol id="symbologyn-amphibious" viewBox="41 41 118 118"><path d="M45,45 l110,0 0,110 -110,0 z" stroke-width="4" stroke="black" fill="rgb(170,255,170)" fill-opacity="1"></path><path d="M45,45L155,155M45,155L155,45" stroke-width="4" stroke="black" fill="black"></path><path d="m 45,110 c 18.8,0 0,-20 18,-20 18.8,0 0,20 18.8,20 18.8,0 0,-20 18.8,-20 18.8,0 0,20 18.8,20 18.8,0 0,-20 18.8,-20 18.8,0 0,20 18,20" stroke-width="4" stroke="black" fill="none"></path></symbol><symbol id="symbologyn-armor-armored-mechanized-self–propelled-tracked" viewBox="41 41 118 118"><path d="M45,45 l110,0 0,110 -110,0 z" stroke-width="4" stroke="black" fill="rgb(170,255,170)" fill-opacity="1"></path><path d="M125,80 C150,80 150,120 125,120 L75,120 C50,120 50,80 75,80 Z" stroke-width="4" stroke="black" fill="none"></path></symbol><symbol id="symbologyn-aviationfixedwing" viewBox="41 41 118 118"><path d="M45,45 l110,0 0,110 -110,0 z" stroke-width="4" stroke="black" fill="rgb(170,255,170)" fill-opacity="1"></path><path d="M100,100 L130,88 c15,0 15,24 0,24 L100,100 70,112 c-15,0 -15,-24 0,-24 Z" stroke-width="4" stroke="black" fill="black"></path></symbol><symbol id="symbologyn-band" viewBox="41 41 118 118"><path d="M45,45 l110,0 0,110 -110,0 z" stroke-width="4" stroke="black" fill="rgb(170,255,170)" fill-opacity="1"></path><text x="100" y="110" text-anchor="middle" font-size="32" font-family="Arial" font-weight="bold" stroke-width="4" stroke="none" fill="black">BAND</text></symbol><symbol id="symbologyn-combinedarms" viewBox="41 41 118 118"><path d="M45,45 l110,0 0,110 -110,0 z" stroke-width="4" stroke="black" fill="rgb(170,255,170)" fill-opacity="1"></path><path d="m 70,80 60,40 m 0,-40 -60,40 m 55,-40 c 25,0 25,40 0,40 l -50,0 C 50,120 50,80 75,80 z" stroke-width="4" stroke="black" fill="none"></path></symbol><symbol id="symbologyn-counterintelligence" viewBox="41 41 118 118"><path d="M45,45 l110,0 0,110 -110,0 z" stroke-width="4" stroke="black" fill="rgb(170,255,170)" fill-opacity="1"></path><text x="100" y="115" text-anchor="middle" font-size="42" font-family="Arial" font-weight="bold" stroke-width="4" stroke="none" fill="black">CI</text></symbol><symbol id="symbologyn-electronicwarfare" viewBox="41 41 118 118"><path d="M45,45 l110,0 0,110 -110,0 z" stroke-width="4" stroke="black" fill="rgb(170,255,170)" fill-opacity="1"></path><text x="100" y="115" text-anchor="middle" font-size="42" font-family="Arial" font-weight="bold" stroke-width="4" stroke="none" fill="black">EW</text></symbol><symbol id="symbologyn-fieldartillery" viewBox="41 41 118 118"><path d="M45,45 l110,0 0,110 -110,0 z" stroke-width="4" stroke="black" fill="rgb(170,255,170)" fill-opacity="1"></path><circle cx="100" cy="100" r="15" stroke-width="4" stroke="black" fill="black"></circle></symbol><symbol id="symbologyn-infantry" viewBox="41 41 118 118"><path d="M45,45 l110,0 0,110 -110,0 z" stroke-width="4" stroke="black" fill="rgb(170,255,170)" fill-opacity="1"></path><path d="M45,45L155,155M45,155L155,45" stroke-width="4" stroke="black" fill="black"></path></symbol><symbol id="symbologyn-missiledefense" viewBox="41 41 118 118"><path d="M45,45 l110,0 0,110 -110,0 z" stroke-width="4" stroke="black" fill="rgb(170,255,170)" fill-opacity="1"></path><text x="100" y="115" text-anchor="middle" font-size="42" font-family="Arial" font-weight="bold" stroke-width="4" stroke="none" fill="black">MD</text></symbol><symbol id="symbologyn-naval" viewBox="41 41 118 118"><path d="M45,45 l110,0 0,110 -110,0 z" stroke-width="4" stroke="black" fill="rgb(170,255,170)" fill-opacity="1"></path><path d="m 105,85 c 0,2.8 -2.2,5 -5,5 -2.8,0 -5,-2.2 -5,-5 0,-2.8 2.2,-5 5,-5 2.8,0 5,2.2 5,5 z m -20,5 30,0 m -15,0 0,30" stroke-width="4" stroke="black" fill="none"></path><path d="M 82.3 102.6 C 82.3 113.9 84.2 115.9 84.2 115.9 L 86.5 114.1 C 90.2 117.8 94.8 120.8 99.9 120.9 L 100.5 120.9 L 101 120.9 C 106.2 120.8 110.8 117.8 114.4 114.1 L 116.7 115.9 C 116.7 115.9 118.6 113.9 118.7 102.6 C 113.9 106.8 108.9 109 108.9 109 L 110.9 110.7 C 110.9 110.7 106.8 115.2 100.5 115.2 L 100.5 115.2 C 100.5 115.2 100.4 115.2 100.4 115.2 C 94.2 115.2 90 110.7 90 110.7 L 92 109 C 92 109 87 106.8 82.3 102.6 z" stroke-width="4" stroke="none" fill="black"></path></symbol><symbol id="symbologyn-reconnaissance-cavalry-scout" viewBox="41 41 118 118"><path d="M45,45 l110,0 0,110 -110,0 z" stroke-width="4" stroke="black" fill="rgb(170,255,170)" fill-opacity="1"></path><path d="M45,155L155,45" stroke-width="4" stroke="black" fill="black"></path></symbol><symbol id="symbologyn-reconnaissance" viewBox="41 41 118 118"><path d="M45,45 l110,0 0,110 -110,0 z" stroke-width="4" stroke="black" fill="rgb(170,255,170)" fill-opacity="1"></path><path d="M60,85 l40,15 40,-15 0,30 -40,-15 -40,15 z" stroke-width="4" stroke="black" fill="black"></path><path d="M45,155L155,45" stroke-width="4" stroke="black" fill="black"></path></symbol><symbol id="symbologyn-self–propelled" viewBox="41 41 118 118"><path d="M45,45 l110,0 0,110 -110,0 z" stroke-width="4" stroke="black" fill="rgb(170,255,170)" fill-opacity="1"></path><g transform="translate(20,20)"><g transform="scale(0.8)"><circle cx="100" cy="100" r="15" stroke-width="4" stroke="black" fill="black"></circle></g></g><path d="M125,80 C150,80 150,120 125,120 L75,120 C50,120 50,80 75,80 Z" stroke-width="4" stroke="black" fill="none"></path></symbol><symbol id="symbologyn-shorepatrol" viewBox="41 41 118 118"><path d="M45,45 l110,0 0,110 -110,0 z" stroke-width="4" stroke="black" fill="rgb(170,255,170)" fill-opacity="1"></path><text x="100" y="115" text-anchor="middle" font-size="42" font-family="Arial" font-weight="bold" stroke-width="4" stroke="none" fill="black">SP</text></symbol><symbol id="symbologyn-surveillance" viewBox="41 41 118 118"><path d="M45,45 l110,0 0,110 -110,0 z" stroke-width="4" stroke="black" fill="rgb(170,255,170)" fill-opacity="1"></path><path d="m 100,80 -25,40 50,0 z" stroke-width="4" stroke="black" fill="black"></path></symbol><symbol id="symbologyu-airdefense" viewBox="26.75 26.75 146.5 146.5"><path d="M63,63 C63,20 137,20 137,63 C180,63 180,137 137,137 C137,180 63,180 63,137 C20,137 20,63 63,63 Z" stroke-width="4" stroke="black" fill="rgb(255,255,128)" fill-opacity="1"></path><path d="m 55,135 c 10,-20 80,-20 90,0" stroke-width="4" stroke="black" fill="none"></path></symbol><symbol id="symbologyu-amphibious" viewBox="26.75 26.75 146.5 146.5"><path d="M63,63 C63,20 137,20 137,63 C180,63 180,137 137,137 C137,180 63,180 63,137 C20,137 20,63 63,63 Z" stroke-width="4" stroke="black" fill="rgb(255,255,128)" fill-opacity="1"></path><path d="M50,65L150,135M50,135L150,65" stroke-width="4" stroke="black" fill="black"></path><path d="m 30,95 c 10,0 0,15 13.5,15 18.8,0 0,-20 18.8,-20 18.8,0 0,20 18.8,20 18.8,0 0,-20 18.8,-20 18.8,0 0,20 18.8,20 18.8,0 0,-20 18.8,-20 18.8,0 0,20 18.8,20 13.5,0 3.5,-15 13.5,-15" stroke-width="4" stroke="black" fill="none"></path></symbol><symbol id="symbologyu-armor-armored-mechanized-self–propelled-tracked" viewBox="26.75 26.75 146.5 146.5"><path d="M63,63 C63,20 137,20 137,63 C180,63 180,137 137,137 C137,180 63,180 63,137 C20,137 20,63 63,63 Z" stroke-width="4" stroke="black" fill="rgb(255,255,128)" fill-opacity="1"></path><path d="M125,80 C150,80 150,120 125,120 L75,120 C50,120 50,80 75,80 Z" stroke-width="4" stroke="black" fill="none"></path></symbol><symbol id="symbologyu-aviationfixedwing" viewBox="26.75 26.75 146.5 146.5"><path d="M63,63 C63,20 137,20 137,63 C180,63 180,137 137,137 C137,180 63,180 63,137 C20,137 20,63 63,63 Z" stroke-width="4" stroke="black" fill="rgb(255,255,128)" fill-opacity="1"></path><path d="M100,100 L130,88 c15,0 15,24 0,24 L100,100 70,112 c-15,0 -15,-24 0,-24 Z" stroke-width="4" stroke="black" fill="black"></path></symbol><symbol id="symbologyu-band" viewBox="26.75 26.75 146.5 146.5"><path d="M63,63 C63,20 137,20 137,63 C180,63 180,137 137,137 C137,180 63,180 63,137 C20,137 20,63 63,63 Z" stroke-width="4" stroke="black" fill="rgb(255,255,128)" fill-opacity="1"></path><text x="100" y="110" text-anchor="middle" font-size="32" font-family="Arial" font-weight="bold" stroke-width="4" stroke="none" fill="black">BAND</text></symbol><symbol id="symbologyu-combinedarms" viewBox="26.75 26.75 146.5 146.5"><path d="M63,63 C63,20 137,20 137,63 C180,63 180,137 137,137 C137,180 63,180 63,137 C20,137 20,63 63,63 Z" stroke-width="4" stroke="black" fill="rgb(255,255,128)" fill-opacity="1"></path><path d="m 70,80 60,40 m 0,-40 -60,40 m 55,-40 c 25,0 25,40 0,40 l -50,0 C 50,120 50,80 75,80 z" stroke-width="4" stroke="black" fill="none"></path></symbol><symbol id="symbologyu-counterintelligence" viewBox="26.75 26.75 146.5 146.5"><path d="M63,63 C63,20 137,20 137,63 C180,63 180,137 137,137 C137,180 63,180 63,137 C20,137 20,63 63,63 Z" stroke-width="4" stroke="black" fill="rgb(255,255,128)" fill-opacity="1"></path><text x="100" y="115" text-anchor="middle" font-size="42" font-family="Arial" font-weight="bold" stroke-width="4" stroke="none" fill="black">CI</text></symbol><symbol id="symbologyu-electronicwarfare" viewBox="26.75 26.75 146.5 146.5"><path d="M63,63 C63,20 137,20 137,63 C180,63 180,137 137,137 C137,180 63,180 63,137 C20,137 20,63 63,63 Z" stroke-width="4" stroke="black" fill="rgb(255,255,128)" fill-opacity="1"></path><text x="100" y="115" text-anchor="middle" font-size="42" font-family="Arial" font-weight="bold" stroke-width="4" stroke="none" fill="black">EW</text></symbol><symbol id="symbologyu-fieldartillery" viewBox="26.75 26.75 146.5 146.5"><path d="M63,63 C63,20 137,20 137,63 C180,63 180,137 137,137 C137,180 63,180 63,137 C20,137 20,63 63,63 Z" stroke-width="4" stroke="black" fill="rgb(255,255,128)" fill-opacity="1"></path><circle cx="100" cy="100" r="15" stroke-width="4" stroke="black" fill="black"></circle></symbol><symbol id="symbologyu-infantry" viewBox="26.75 26.75 146.5 146.5"><path d="M63,63 C63,20 137,20 137,63 C180,63 180,137 137,137 C137,180 63,180 63,137 C20,137 20,63 63,63 Z" stroke-width="4" stroke="black" fill="rgb(255,255,128)" fill-opacity="1"></path><path d="M50,65L150,135M50,135L150,65" stroke-width="4" stroke="black" fill="black"></path></symbol><symbol id="symbologyu-missiledefense" viewBox="26.75 26.75 146.5 146.5"><path d="M63,63 C63,20 137,20 137,63 C180,63 180,137 137,137 C137,180 63,180 63,137 C20,137 20,63 63,63 Z" stroke-width="4" stroke="black" fill="rgb(255,255,128)" fill-opacity="1"></path><text x="100" y="115" text-anchor="middle" font-size="42" font-family="Arial" font-weight="bold" stroke-width="4" stroke="none" fill="black">MD</text></symbol><symbol id="symbologyu-naval" viewBox="26.75 26.75 146.5 146.5"><path d="M63,63 C63,20 137,20 137,63 C180,63 180,137 137,137 C137,180 63,180 63,137 C20,137 20,63 63,63 Z" stroke-width="4" stroke="black" fill="rgb(255,255,128)" fill-opacity="1"></path><path d="m 105,85 c 0,2.8 -2.2,5 -5,5 -2.8,0 -5,-2.2 -5,-5 0,-2.8 2.2,-5 5,-5 2.8,0 5,2.2 5,5 z m -20,5 30,0 m -15,0 0,30" stroke-width="4" stroke="black" fill="none"></path><path d="M 82.3 102.6 C 82.3 113.9 84.2 115.9 84.2 115.9 L 86.5 114.1 C 90.2 117.8 94.8 120.8 99.9 120.9 L 100.5 120.9 L 101 120.9 C 106.2 120.8 110.8 117.8 114.4 114.1 L 116.7 115.9 C 116.7 115.9 118.6 113.9 118.7 102.6 C 113.9 106.8 108.9 109 108.9 109 L 110.9 110.7 C 110.9 110.7 106.8 115.2 100.5 115.2 L 100.5 115.2 C 100.5 115.2 100.4 115.2 100.4 115.2 C 94.2 115.2 90 110.7 90 110.7 L 92 109 C 92 109 87 106.8 82.3 102.6 z" stroke-width="4" stroke="none" fill="black"></path></symbol><symbol id="symbologyu-reconnaissance-cavalry-scout" viewBox="26.75 26.75 146.5 146.5"><path d="M63,63 C63,20 137,20 137,63 C180,63 180,137 137,137 C137,180 63,180 63,137 C20,137 20,63 63,63 Z" stroke-width="4" stroke="black" fill="rgb(255,255,128)" fill-opacity="1"></path><path d="M50,135L150,65" stroke-width="4" stroke="black" fill="black"></path></symbol><symbol id="symbologyu-reconnaissance" viewBox="26.75 26.75 146.5 146.5"><path d="M63,63 C63,20 137,20 137,63 C180,63 180,137 137,137 C137,180 63,180 63,137 C20,137 20,63 63,63 Z" stroke-width="4" stroke="black" fill="rgb(255,255,128)" fill-opacity="1"></path><path d="M60,85 l40,15 40,-15 0,30 -40,-15 -40,15 z" stroke-width="4" stroke="black" fill="black"></path><path d="M50,135L150,65" stroke-width="4" stroke="black" fill="black"></path></symbol><symbol id="symbologyu-self–propelled" viewBox="26.75 26.75 146.5 146.5"><path d="M63,63 C63,20 137,20 137,63 C180,63 180,137 137,137 C137,180 63,180 63,137 C20,137 20,63 63,63 Z" stroke-width="4" stroke="black" fill="rgb(255,255,128)" fill-opacity="1"></path><g transform="translate(20,20)"><g transform="scale(0.8)"><circle cx="100" cy="100" r="15" stroke-width="4" stroke="black" fill="black"></circle></g></g><path d="M125,80 C150,80 150,120 125,120 L75,120 C50,120 50,80 75,80 Z" stroke-width="4" stroke="black" fill="none"></path></symbol><symbol id="symbologyu-shorepatrol" viewBox="26.75 26.75 146.5 146.5"><path d="M63,63 C63,20 137,20 137,63 C180,63 180,137 137,137 C137,180 63,180 63,137 C20,137 20,63 63,63 Z" stroke-width="4" stroke="black" fill="rgb(255,255,128)" fill-opacity="1"></path><text x="100" y="115" text-anchor="middle" font-size="42" font-family="Arial" font-weight="bold" stroke-width="4" stroke="none" fill="black">SP</text></symbol><symbol id="symbologyu-surveillance" viewBox="26.75 26.75 146.5 146.5"><path d="M63,63 C63,20 137,20 137,63 C180,63 180,137 137,137 C137,180 63,180 63,137 C20,137 20,63 63,63 Z" stroke-width="4" stroke="black" fill="rgb(255,255,128)" fill-opacity="1"></path><path d="m 100,80 -25,40 50,0 z" stroke-width="4" stroke="black" fill="black"></path></symbol></svg>